HIERARCHY
ROOT Hips
{
	OFFSET 0.000000 83.214638 0.000000
	CHANNELS 6 Xposition Yposition Zposition Xrotation Yrotation Zrotation
	JOINT Pelvis
	{
		OFFSET 0.000000 0.000000 0.000000
		CHANNELS 3 Xrotation Yrotation Zrotation
		JOINT LeftUpLeg
		{
			OFFSET 8.479700 -4.795502 -0.379100
			CHANNELS 3 Xrotation Yrotation Zrotation
			JOINT LeftLeg
			{
				OFFSET 0.024144 -32.555107 0.112900
				CHANNELS 3 Xrotation Yrotation Zrotation
				JOINT LeftFoot
				{
					OFFSET -0.024144 -32.638630 -3.012600
					CHANNELS 3 Xrotation Yrotation Zrotation
					JOINT LeftToeBase
					{
						OFFSET 0.970200 -13.225400 11.864200
						CHANNELS 3 Xrotation Yrotation Zrotation
						End Site
						{
							OFFSET 0.000000 12.319262 0.000000
						}
					}
					JOINT LFootTongue
					{
						OFFSET 1.142400 -1.059800 6.665200
						CHANNELS 3 Xrotation Yrotation Zrotation
						End Site
						{
							OFFSET 0.000000 12.319262 0.000000
						}
					}
				}
				JOINT LeftPantLeg
				{
					OFFSET 0.918482 -16.533964 -2.284700
					CHANNELS 3 Xrotation Yrotation Zrotation
					End Site
					{
						OFFSET 0.350399 24.744368 0.000000
					}
				}
			}
		}
		JOINT RightUpLeg
		{
			OFFSET -8.479700 -4.795502 -0.379100
			CHANNELS 3 Xrotation Yrotation Zrotation
			JOINT RightLeg
			{
				OFFSET -0.023144 -32.555092 0.112900
				CHANNELS 3 Xrotation Yrotation Zrotation
				JOINT RightFoot
				{
					OFFSET 0.023144 -32.638641 -3.012700
					CHANNELS 3 Xrotation Yrotation Zrotation
					JOINT RightToeBase
					{
						OFFSET -0.970200 -13.225400 11.864200
						CHANNELS 3 Xrotation Yrotation Zrotation
						End Site
						{
							OFFSET 0.000000 12.319244 0.000000
						}
					}
					JOINT RFootTongue
					{
						OFFSET -1.142200 -1.059800 6.665200
						CHANNELS 3 Xrotation Yrotation Zrotation
						End Site
						{
							OFFSET 0.000000 12.319243 0.000000
						}
					}
				}
				JOINT RightPantLeg
				{
					OFFSET -0.919482 -16.533978 -2.284800
					CHANNELS 3 Xrotation Yrotation Zrotation
					End Site
					{
						OFFSET -0.350400 24.744419 0.000000
					}
				}
			}
		}
	}
	JOINT Spine
	{
		OFFSET 0.000000 7.722000 1.166200
		CHANNELS 3 Xrotation Yrotation Zrotation
		JOINT Spine1
		{
			OFFSET 0.000000 12.024101 0.248800
			CHANNELS 3 Xrotation Yrotation Zrotation
			JOINT Spine2
			{
				OFFSET 0.000000 11.502998 -0.491200
				CHANNELS 3 Xrotation Yrotation Zrotation
				JOINT Neck
				{
					OFFSET 0.000000 18.430702 -3.123100
					CHANNELS 3 Xrotation Yrotation Zrotation
					JOINT Head
					{
						OFFSET 0.000000 9.051102 1.034000
						CHANNELS 3 Xrotation Yrotation Zrotation
						JOINT HairB
						{
							OFFSET 0.208400 24.786102 24.822300
							CHANNELS 3 Xrotation Yrotation Zrotation
							End Site
							{
								OFFSET 0.000000 32.263779 0.000000
							}
						}
						JOINT HairA
						{
							OFFSET -7.081100 24.428299 23.196600
							CHANNELS 3 Xrotation Yrotation Zrotation
							End Site
							{
								OFFSET 0.000000 32.263779 0.000000
							}
						}
						JOINT Hat
						{
							OFFSET 16.728800 15.048294 -15.439601
							CHANNELS 3 Xrotation Yrotation Zrotation
							End Site
							{
								OFFSET 0.000000 32.263779 0.000000
							}
						}
					}
				}
				JOINT LeftShoulder
				{
					OFFSET 6.197800 13.665199 -4.064700
					CHANNELS 3 Xrotation Yrotation Zrotation
					JOINT LeftArm
					{
						OFFSET 7.778100 -0.187103 -1.709300
						CHANNELS 3 Xrotation Yrotation Zrotation
						JOINT LeftForeArm
						{
							OFFSET 22.049376 0.000000 0.000000
							CHANNELS 3 Xrotation Yrotation Zrotation
							JOINT LeftHand
							{
								OFFSET 23.009392 0.000000 0.000000
								CHANNELS 3 Xrotation Yrotation Zrotation
								JOINT LeftHandThumb1
								{
									OFFSET 3.507191 -2.063065 3.133727
									CHANNELS 3 Xrotation Yrotation Zrotation
									JOINT LeftHandThumb2
									{
										OFFSET 3.101337 -1.790558 1.790558
										CHANNELS 3 Xrotation Yrotation Zrotation
										JOINT LeftHandThumb3
										{
											OFFSET 3.058640 -1.765907 1.765906
											CHANNELS 3 Xrotation Yrotation Zrotation
											End Site
											{
												OFFSET -0.415260 3.926476 -0.049563
											}
										}
									}
								}
								JOINT LeftHandIndex1
								{
									OFFSET 11.334419 -0.901459 3.706815
									CHANNELS 3 Xrotation Yrotation Zrotation
									JOINT LeftHandIndex2
									{
										OFFSET 3.283112 0.000000 0.000000
										CHANNELS 3 Xrotation Yrotation Zrotation
										JOINT LeftHandIndex3
										{
											OFFSET 3.323853 0.000000 0.000000
											CHANNELS 3 Xrotation Yrotation Zrotation
											End Site
											{
												OFFSET -1.135597 3.097809 0.402452
											}
										}
									}
								}
								JOINT LeftHandMiddle1
								{
									OFFSET 11.335861 0.000000 0.000000
									CHANNELS 3 Xrotation Yrotation Zrotation
									JOINT LeftHandMiddle2
									{
										OFFSET 3.410492 0.000000 0.000000
										CHANNELS 3 Xrotation Yrotation Zrotation
										JOINT LeftHandMiddle3
										{
											OFFSET 3.312172 0.000000 0.000000
											CHANNELS 3 Xrotation Yrotation Zrotation
											End Site
											{
												OFFSET -1.150200 3.080154 0.400270
											}
										}
									}
								}
								JOINT LeftHandRing1
								{
									OFFSET 11.514786 -0.013176 -3.003090
									CHANNELS 3 Xrotation Yrotation Zrotation
									JOINT LeftHandRing2
									{
										OFFSET 3.053307 0.000000 0.000000
										CHANNELS 3 Xrotation Yrotation Zrotation
										JOINT LeftHandRing3
										{
											OFFSET 3.295807 0.000000 0.000000
											CHANNELS 3 Xrotation Yrotation Zrotation
											End Site
											{
												OFFSET -1.281006 3.013344 0.375733
											}
										}
									}
								}
								JOINT LeftHandPinky1
								{
									OFFSET 10.518692 -0.960396 -5.730441
									CHANNELS 3 Xrotation Yrotation Zrotation
									JOINT LeftHandPinky2
									{
										OFFSET 2.861649 0.000000 0.000000
										CHANNELS 3 Xrotation Yrotation Zrotation
										JOINT LeftHandPinky3
										{
											OFFSET 2.863380 0.000000 0.000000
											CHANNELS 3 Xrotation Yrotation Zrotation
											End Site
											{
												OFFSET -0.843597 2.711159 0.369971
											}
										}
									}
								}
							}
							JOINT LSleeve
							{
								OFFSET 6.676277 -0.344902 -1.011730
								CHANNELS 3 Xrotation Yrotation Zrotation
								End Site
								{
									OFFSET 0.000000 14.885353 0.000000
								}
							}
						}
					}
				}
				JOINT RightShoulder
				{
					OFFSET -6.197800 13.665199 -4.064700
					CHANNELS 3 Xrotation Yrotation Zrotation
					JOINT RightArm
					{
						OFFSET -7.778100 -0.187103 -1.709300
						CHANNELS 3 Xrotation Yrotation Zrotation
						JOINT RightForeArm
						{
							OFFSET -22.049376 0.000000 0.000000
							CHANNELS 3 Xrotation Yrotation Zrotation
							JOINT RightHand
							{
								OFFSET -23.009392 0.000000 0.000000
								CHANNELS 3 Xrotation Yrotation Zrotation
								JOINT RightHandThumb1
								{
									OFFSET -3.507191 -2.063065 3.133727
									CHANNELS 3 Xrotation Yrotation Zrotation
									JOINT RightHandThumb2
									{
										OFFSET -3.101337 -1.790558 1.790558
										CHANNELS 3 Xrotation Yrotation Zrotation
										JOINT RightHandThumb3
										{
											OFFSET -3.058640 -1.765907 1.765906
											CHANNELS 3 Xrotation Yrotation Zrotation
											End Site
											{
												OFFSET 0.415260 3.926476 -0.049563
											}
										}
									}
								}
								JOINT RightHandIndex1
								{
									OFFSET -11.334419 -0.901459 3.706815
									CHANNELS 3 Xrotation Yrotation Zrotation
									JOINT RightHandIndex2
									{
										OFFSET -3.283112 0.000000 0.000000
										CHANNELS 3 Xrotation Yrotation Zrotation
										JOINT RightHandIndex3
										{
											OFFSET -3.323853 0.000000 0.000000
											CHANNELS 3 Xrotation Yrotation Zrotation
											End Site
											{
												OFFSET 1.135597 3.097809 0.402452
											}
										}
									}
								}
								JOINT RightHandMiddle1
								{
									OFFSET -11.335861 0.000000 0.000000
									CHANNELS 3 Xrotation Yrotation Zrotation
									JOINT RightHandMiddle2
									{
										OFFSET -3.410492 0.000000 0.000000
										CHANNELS 3 Xrotation Yrotation Zrotation
										JOINT RightHandMiddle3
										{
											OFFSET -3.312172 0.000000 0.000000
											CHANNELS 3 Xrotation Yrotation Zrotation
											End Site
											{
												OFFSET 1.150200 3.080154 0.400270
											}
										}
									}
								}
								JOINT RightHandRing1
								{
									OFFSET -11.514786 -0.013176 -3.003090
									CHANNELS 3 Xrotation Yrotation Zrotation
									JOINT RightHandRing2
									{
										OFFSET -3.053307 0.000000 0.000000
										CHANNELS 3 Xrotation Yrotation Zrotation
										JOINT RightHandRing3
										{
											OFFSET -3.295807 0.000000 0.000000
											CHANNELS 3 Xrotation Yrotation Zrotation
											End Site
											{
												OFFSET 1.281006 3.013344 0.375733
											}
										}
									}
								}
								JOINT RightHandPinky1
								{
									OFFSET -10.518692 -0.960396 -5.730441
									CHANNELS 3 Xrotation Yrotation Zrotation
									JOINT RightHandPinky2
									{
										OFFSET -2.861649 0.000000 0.000000
										CHANNELS 3 Xrotation Yrotation Zrotation
										JOINT RightHandPinky3
										{
											OFFSET -2.863380 0.000000 0.000000
											CHANNELS 3 Xrotation Yrotation Zrotation
											End Site
											{
												OFFSET 0.843597 2.711159 0.369971
											}
										}
									}
								}
							}
							JOINT RSleeve
							{
								OFFSET -6.676277 -0.344902 -1.011730
								CHANNELS 3 Xrotation Yrotation Zrotation
								End Site
								{
									OFFSET 0.000000 14.885353 0.000000
								}
							}
						}
					}
				}
				JOINT Backpack
				{
					OFFSET 0.000000 -2.471497 36.677502
					CHANNELS 3 Xrotation Yrotation Zrotation
					End Site
					{
						OFFSET 0.000000 20.427315 0.000000
					}
				}
				JOINT Hood
				{
					OFFSET 0.000000 18.754097 -10.431000
					CHANNELS 3 Xrotation Yrotation Zrotation
					JOINT Hood1
					{
						OFFSET 0.000000 -5.011002 -7.685901
						CHANNELS 3 Xrotation Yrotation Zrotation
						End Site
						{
							OFFSET 0.000000 9.175140 0.000000
						}
					}
				}
				JOINT LHoodieString
				{
					OFFSET 5.250500 16.397697 3.089900
					CHANNELS 3 Xrotation Yrotation Zrotation
					JOINT LHoodieString1
					{
						OFFSET 0.257700 -6.364304 3.694600
						CHANNELS 3 Xrotation Yrotation Zrotation
						JOINT LHoodieString2
						{
							OFFSET 0.000000 -9.643799 2.679100
							CHANNELS 3 Xrotation Yrotation Zrotation
							End Site
							{
								OFFSET 0.000000 10.009018 0.000000
							}
						}
					}
				}
				JOINT RHoodieString
				{
					OFFSET -5.250500 16.397697 3.089900
					CHANNELS 3 Xrotation Yrotation Zrotation
					JOINT RHoodieString1
					{
						OFFSET -0.257700 -6.364304 3.694600
						CHANNELS 3 Xrotation Yrotation Zrotation
						JOINT RHoodieString2
						{
							OFFSET 0.000000 -9.643799 2.679100
							CHANNELS 3 Xrotation Yrotation Zrotation
							End Site
							{
								OFFSET 0.000000 10.009018 0.000000
							}
						}
					}
				}
			}
			JOINT LBackpack_Strap
			{
				OFFSET 15.223200 -7.719803 -6.610900
				CHANNELS 3 Xrotation Yrotation Zrotation
				End Site
				{
					OFFSET 0.000000 16.040596 0.000000
				}
			}
			JOINT RBackpack_Strap
			{
				OFFSET -15.223000 -7.719803 -6.610900
				CHANNELS 3 Xrotation Yrotation Zrotation
				End Site
				{
					OFFSET 0.000000 16.040596 0.000000
				}
			}
		}
	}
	JOINT BoyFacialAnim_Joint
	{
		OFFSET 1.000000 -82.208099 -1.550900
		CHANNELS 3 Xrotation Yrotation Zrotation
		End Site
		{
			OFFSET 0.000000 30.012791 0.000000
		}
	}
}
MOTION
Frames: 4
Frame Time: 0.033333
2.913985 78.464203 4.741234 -2.152585 -2.538799 0.254451 -0.000000 -0.000000 -0.000000 -32.646935 7.396800 1.622987 56.247154 0.679125 -1.199636 6.313655 0.026455 -3.139408 -0.000001 0.000000 -0.000001 -0.000001 0.000000 -0.000000 -0.000000 -0.000000 -0.000001 -10.348048 -7.393741 -2.894203 38.314776 9.950754 1.076866 -22.210541 6.441580 -4.860165 -0.000000 0.000000 -0.000000 -0.000000 0.000000 -0.000000 0.000001 -0.000000 0.000000 13.016912 1.249168 1.097521 -1.218847 0.082814 0.411740 -1.219391 0.095621 0.408669 6.256531 -2.666203 -7.231981 -1.373370 0.473821 4.335056 0.000000 -0.000000 -0.000000 0.000000 -0.000000 -0.000000 0.000000 -0.000000 -0.000000 -2.083348 14.528811 -7.495206 2.430223 1.944392 -48.222741 -0.000174 -84.368628 -0.000202 -46.509043 9.414602 9.295927 -1.540039 3.690193 6.142352 51.365130 17.351867 -36.181698 -0.000001 -0.000003 0.000000 7.501352 7.296426 -74.775764 7.106073 6.877542 -91.877219 -0.000003 -0.000002 -0.000000 5.180786 6.668796 -75.546974 7.106006 6.877526 -91.876761 -0.000002 0.000001 -0.000001 0.347167 5.312935 -74.281688 7.182502 6.874621 -92.515677 -0.000001 0.000001 0.000002 -2.219139 5.082058 -77.867476 7.074989 2.792220 -91.619591 -0.000000 0.000002 -0.000002 0.000003 0.000001 0.000000 0.949232 1.440872 -0.820109 9.108300 -21.176950 60.426561 0.000036 85.285055 0.000031 -36.503970 5.811399 1.519530 19.842149 -4.446540 11.267547 13.543051 -24.319346 0.843815 0.000001 0.000001 -0.000002 4.460562 -6.489687 68.973723 8.039656 -6.862405 99.059183 0.000001 -0.000001 0.000005 4.588025 -6.537078 69.737304 8.039677 -6.862377 99.059518 0.000002 -0.000001 0.000003 4.426526 -6.477858 67.610335 8.224158 -6.830656 100.606795 -0.000002 -0.000002 0.000004 4.460553 -6.489645 68.973723 8.039659 -6.862396 99.059183 0.000001 -0.000002 -0.000004 0.000000 0.000000 0.000000 0.000000 -0.000000 -0.000000 0.000000 -0.000000 -0.000000 0.000000 -0.000000 -0.000000 0.000000 -0.000000 -0.000000 0.000000 -0.000000 -0.000000 0.000000 -0.000000 -0.000000 0.000000 -0.000000 -0.000000 0.000000 -0.000000 -0.000000 0.000000 -0.000000 -0.000000 -0.000001 0.000000 -0.000000 -0.000001 0.000000 -0.000000 -0.000000 -0.000000 -0.000000 
3.169050 80.844162 4.952088 -2.554240 -2.038788 0.781917 0.000000 -0.000000 -0.000000 -31.531432 7.961455 1.768196 52.496189 -1.821688 -1.560203 11.842973 -0.194246 -5.214183 -0.000002 0.000000 -0.000000 -0.000002 0.000000 0.000000 0.000001 -0.000000 -0.000000 -9.161817 -7.760959 -3.174458 33.885948 9.762097 1.089256 -12.136974 5.001162 -4.965318 -0.000000 -0.000000 0.000000 -0.000000 -0.000000 0.000000 -0.000000 0.000000 0.000000 12.126732 1.172464 0.626643 -0.645696 0.079331 0.425413 -0.646331 0.091125 0.423120 7.408290 -2.790122 -7.346605 -1.231413 0.332132 4.440780 0.000001 -0.000000 -0.000000 0.000001 -0.000000 -0.000000 0.000001 -0.000000 -0.000000 -2.018805 14.292808 -7.694303 6.118171 -2.930064 -50.109908 0.000109 -76.823987 0.000088 -50.345215 15.644029 6.316240 -1.540040 3.690195 6.142355 51.365130 17.351858 -36.181691 0.000000 0.000001 -0.000000 7.501353 7.296433 -74.775764 7.106074 6.877541 -91.877225 -0.000000 0.000004 -0.000005 5.180786 6.668800 -75.546967 7.106008 6.877526 -91.876761 0.000001 0.000002 -0.000003 0.347164 5.312937 -74.281688 7.182507 6.874622 -92.515677 -0.000004 -0.000003 0.000003 -2.219140 5.082058 -77.867469 7.074986 2.792220 -91.619591 -0.000001 0.000001 0.000002 0.000001 -0.000001 -0.000002 1.124589 1.986148 -0.296834 12.055607 -15.088846 61.604796 0.000049 75.309174 -0.000052 -38.140026 0.018069 3.072794 19.842147 -4.446544 11.267542 13.543054 -24.319344 0.843815 0.000000 0.000002 -0.000003 4.460563 -6.489690 68.973723 8.039650 -6.862403 99.059183 -0.000002 0.000000 0.000005 4.588024 -6.537084 69.737297 8.039675 -6.862379 99.059518 0.000002 -0.000003 0.000003 4.426527 -6.477859 67.610335 8.224162 -6.830660 100.606788 -0.000002 0.000000 0.000004 4.460554 -6.489650 68.973716 8.039659 -6.862394 99.059183 0.000003 -0.000003 0.000003 0.000000 -0.000001 -0.000001 0.000001 0.000000 0.000000 0.000001 0.000000 0.000000 0.000001 0.000000 0.000000 0.000001 0.000000 0.000000 0.000001 0.000000 0.000000 -0.000000 0.000000 0.000000 0.000001 0.000000 0.000000 0.000001 0.000000 0.000000 -0.000000 0.000000 0.000000 0.000000 -0.000000 0.000000 0.000000 -0.000000 0.000000 0.000000 -0.000000 -0.000000 
3.469866 84.140709 5.388373 -2.361842 -2.345320 1.443992 -0.000000 0.000000 0.000000 -28.143006 9.159613 1.448877 45.135225 -4.703726 -1.938091 14.585292 -0.423367 -7.125717 0.000001 -0.000000 0.000000 0.000001 -0.000000 0.000000 0.000001 -0.000000 -0.000000 -6.688622 -7.653046 -2.796956 24.588133 9.909996 1.016748 3.730400 2.974862 -4.747510 -0.000000 -0.000000 -0.000000 -0.000000 -0.000000 -0.000000 -0.000002 0.000000 0.000000 10.005041 0.852604 -0.287658 0.145595 0.061516 0.524371 0.144921 0.071862 0.523575 8.399592 -2.758825 -7.763116 -0.901232 0.761195 4.426224 0.000001 0.000000 0.000000 0.000001 0.000000 0.000000 0.000001 0.000000 0.000000 -2.234775 15.256269 -8.286295 9.683320 -6.936876 -51.139231 0.000030 -66.705383 0.000035 -54.508106 20.139328 5.255811 -1.540041 3.690197 6.142353 51.365133 17.351867 -36.181701 0.000001 -0.000001 0.000000 7.501351 7.296429 -74.775764 7.106073 6.877544 -91.877219 -0.000002 0.000000 -0.000003 5.180788 6.668801 -75.546967 7.106003 6.877529 -91.876761 0.000006 0.000002 0.000002 0.347167 5.312942 -74.281695 7.182505 6.874622 -92.515677 0.000001 0.000001 0.000002 -2.219137 5.082062 -77.867469 7.074985 2.792218 -91.619591 -0.000002 -0.000004 0.000001 0.000001 0.000001 -0.000000 1.366343 2.148463 1.133509 12.414254 -9.786096 62.692920 0.000013 60.717841 -0.000030 -40.870667 -6.102951 1.827808 19.842149 -4.446538 11.267545 13.543054 -24.319346 0.843817 -0.000000 0.000000 0.000000 4.460563 -6.489683 68.973723 8.039655 -6.862407 99.059183 -0.000002 -0.000001 0.000002 4.588024 -6.537078 69.737297 8.039677 -6.862376 99.059518 0.000006 0.000000 -0.000002 4.426528 -6.477859 67.610342 8.224159 -6.830655 100.606788 0.000001 0.000000 0.000004 4.460558 -6.489646 68.973723 8.039661 -6.862397 99.059183 0.000001 0.000001 0.000002 -0.000000 -0.000000 0.000000 0.000001 -0.000000 -0.000000 0.000001 -0.000000 -0.000000 0.000001 -0.000000 -0.000000 0.000001 -0.000000 -0.000000 0.000001 -0.000000 -0.000000 0.000000 -0.000000 0.000000 0.000001 -0.000000 -0.000000 0.000001 -0.000000 -0.000000 0.000000 -0.000000 0.000000 -0.000000 0.000000 0.000000 -0.000000 0.000000 0.000000 -0.000000 0.000000 0.000000 
3.830585 87.126381 5.737551 -1.567234 -3.906718 1.793543 0.000000 0.000000 -0.000000 -23.972554 10.321584 1.093991 37.195048 -5.998243 -2.218903 13.084525 -0.384978 -8.132206 -0.000000 -0.000000 -0.000001 -0.000000 -0.000000 -0.000000 -0.000001 0.000000 -0.000000 -6.296223 -7.055012 -2.951256 18.847726 10.024386 1.008678 13.707999 1.828790 0.424040 0.000000 -0.000000 -0.000001 0.000000 -0.000000 -0.000001 -0.000000 -0.000000 0.000000 7.862389 0.566630 -0.773124 0.562130 0.044519 0.495568 0.561676 0.052287 0.495394 8.234600 -2.351283 -8.009169 -0.506915 2.223232 3.944118 -0.000001 -0.000000 -0.000000 -0.000001 -0.000000 -0.000000 -0.000001 -0.000000 -0.000000 -2.799410 17.557925 -8.996281 12.167586 -6.728026 -50.832136 0.000001 -59.418247 0.000001 -59.992536 22.420994 7.495222 -1.540045 3.690192 6.142353 51.365126 17.351867 -36.181698 -0.000000 0.000000 -0.000002 7.501347 7.296426 -74.775770 7.106072 6.877545 -91.877225 -0.000005 0.000003 -0.000003 5.180783 6.668799 -75.546967 7.106009 6.877522 -91.876761 0.000002 -0.000001 -0.000000 0.347160 5.312936 -74.281695 7.182507 6.874624 -92.515677 -0.000001 0.000000 -0.000002 -2.219144 5.082052 -77.867476 7.074989 2.792222 -91.619591 -0.000001 0.000001 0.000002 0.000001 0.000004 -0.000002 1.678276 2.497226 2.842662 10.430256 -8.174528 62.725063 0.000021 46.971552 -0.000050 -46.075527 -9.812636 -0.268904 19.842147 -4.446542 11.267547 13.543054 -24.319344 0.843818 0.000001 -0.000000 0.000000 4.460567 -6.489684 68.973723 8.039655 -6.862409 99.059190 -0.000001 -0.000002 0.000002 4.588030 -6.537083 69.737304 8.039677 -6.862376 99.059518 0.000004 -0.000003 -0.000004 4.426533 -6.477858 67.610342 8.224158 -6.830659 100.606788 0.000001 0.000001 0.000004 4.460557 -6.489645 68.973723 8.039659 -6.862394 99.059190 -0.000003 0.000002 0.000001 -0.000001 0.000000 0.000002 -0.000000 0.000000 -0.000000 -0.000000 0.000000 -0.000000 -0.000000 0.000000 -0.000000 -0.000000 0.000000 -0.000000 -0.000000 0.000000 -0.000000 -0.000001 0.000000 0.000000 -0.000000 0.000000 -0.000000 -0.000000 0.000000 -0.000000 -0.000001 0.000000 0.000000 0.000000 -0.000000 0.000000 0.000000 -0.000000 0.000000 0.000000 0.000000 -0.000000 
